<svg width="17" height="16" viewBox="0 0 17 16" fill="none" xmlns="http://www.w3.org/2000/svg">
<path d="M7.83337 13.6667C7.83337 14.219 7.38566 14.6667 6.83337 14.6667C6.28109 14.6667 5.83337 14.219 5.83337 13.6667C5.83337 13.1144 6.28109 12.6667 6.83337 12.6667C7.38566 12.6667 7.83337 13.1144 7.83337 13.6667Z" stroke="white" stroke-width="1.2"/>
<path d="M13.8334 13.6667C13.8334 14.219 13.3857 14.6667 12.8334 14.6667C12.2811 14.6667 11.8334 14.219 11.8334 13.6667C11.8334 13.1144 12.2811 12.6667 12.8334 12.6667C13.3857 12.6667 13.8334 13.1144 13.8334 13.6667Z" stroke="white" stroke-width="1.2"/>
<path d="M4.50004 2.66666H12.5C13.9728 2.66666 15.1667 3.86057 15.1667 5.33333V8.66666C15.1667 10.1394 13.9728 11.3333 12.5 11.3333H7.16671C5.69395 11.3333 4.50004 10.1394 4.50004 8.66666V2.66666ZM4.50004 2.66666C4.50004 1.93028 3.90309 1.33333 3.16671 1.33333H1.83337M4.50004 5.33333H14.8334" stroke="white" stroke-width="1.2" stroke-linecap="round" stroke-linejoin="round"/>
</svg>
