<svg width="17" height="16" viewBox="0 0 17 16" fill="none" xmlns="http://www.w3.org/2000/svg">
<path d="M12.0818 5.44851C13.8991 6.26463 15.1667 8.10743 15.1667 10.25V12.5C15.1667 13.3284 14.5034 14 13.6852 14H9.24078C7.30564 14 5.65936 12.7478 5.04923 11M12.0818 5.44851C11.6141 3.47044 9.85629 2 7.7593 2H7.01856C4.15486 2 1.83337 4.35051 1.83337 7.25V9.5C1.83337 10.3284 2.49666 11 3.31486 11H5.04923M12.0818 5.44851C12.1615 5.78583 12.2037 6.13792 12.2037 6.5C12.2037 8.98528 10.2139 11 7.7593 11H5.04923" stroke="#09090B" stroke-width="1.2" stroke-linejoin="round"/>
</svg>
