<svg width="17" height="16" viewBox="0 0 17 16" fill="none" xmlns="http://www.w3.org/2000/svg">
<path d="M12.0816 5.44851C13.899 6.26463 15.1666 8.10743 15.1666 10.25V12.5C15.1666 13.3284 14.5033 14 13.6851 14H9.24066C7.30552 14 5.65924 12.7478 5.04911 11M12.0816 5.44851C11.614 3.47044 9.85617 2 7.75918 2H7.01844C4.15474 2 1.83325 4.35051 1.83325 7.25V9.5C1.83325 10.3284 2.49653 11 3.31473 11H5.04911M12.0816 5.44851C12.1614 5.78583 12.2036 6.13792 12.2036 6.5C12.2036 8.98528 10.2138 11 7.75918 11H5.04911" stroke="white" stroke-width="1.2" stroke-linejoin="round"/>
</svg>
