<svg width="17" height="16" viewBox="0 0 17 16" fill="none" xmlns="http://www.w3.org/2000/svg">
<path d="M7.74924 14.3415L6.39567 13.5381C6.05215 13.3343 5.88038 13.2323 5.68975 13.2264C5.48375 13.22 5.30895 13.3178 4.93774 13.5381C4.522 13.7849 3.69533 14.4647 3.16059 14.1405C2.83337 13.9421 2.83337 13.4383 2.83337 12.4305V5.33334C2.83337 3.44772 2.83337 2.50492 3.41916 1.91913C4.00495 1.33334 4.94775 1.33334 6.83337 1.33334H10.1667C12.0523 1.33334 12.9951 1.33334 13.5809 1.91913C14.1667 2.50492 14.1667 3.44772 14.1667 5.33334V12.4305C14.1667 13.4383 14.1667 13.9421 13.8395 14.1405C13.3048 14.4647 12.4781 13.7849 12.0623 13.5381C11.7188 13.3343 11.547 13.2323 11.3564 13.2264C11.1504 13.22 10.9756 13.3178 10.6044 13.5381L9.25084 14.3415C8.88577 14.5583 8.70317 14.6666 8.50004 14.6666C8.29691 14.6666 8.11431 14.5583 7.74924 14.3415Z" stroke="black" stroke-linecap="round" stroke-linejoin="round"/>
<path d="M10.5 5.33334L6.5 9.33334" stroke="black" stroke-linecap="round" stroke-linejoin="round"/>
<path d="M10.5 9.33334H10.494M6.50598 5.33334H6.5" stroke="black" stroke-width="1.33333" stroke-linecap="round" stroke-linejoin="round"/>
</svg>
