<svg width="17" height="16" viewBox="0 0 17 16" fill="none" xmlns="http://www.w3.org/2000/svg">
<path d="M8.49998 3.92578L12.574 6.14801L8.49998 8.3702L4.4259 6.14801L8.49998 3.92578Z" stroke="black" stroke-linecap="round" stroke-linejoin="round"/>
<path d="M4.05554 10.2223V11.5552C4.05554 12.3203 4.19198 12.5587 4.87449 12.9069L7.83745 14.4181C8.48765 14.7497 8.51232 14.7497 9.16252 14.4181L12.1255 12.9069C12.808 12.5587 12.9444 12.3203 12.9444 11.5552V10.2223" stroke="black" stroke-linecap="round" stroke-linejoin="round"/>
<path d="M10.2308 2.19289L8.50004 3.75785L6.76921 2.19289C6.15899 1.64115 5.85389 1.36528 5.48066 1.3359C5.10743 1.30651 4.76539 1.53142 4.08132 1.98125L2.84234 2.79598C2.17796 3.23286 1.84577 3.4513 1.83371 3.77587C1.82165 4.10044 2.13664 4.34457 2.76664 4.83282L4.37767 6.08136L2.76664 7.32994C2.13665 7.81814 1.82165 8.06228 1.83371 8.38688C1.84577 8.71141 2.17796 8.92988 2.84234 9.36674L4.74428 10.6174C5.10912 10.8573 5.29154 10.9773 5.49059 10.9616C5.68965 10.9459 5.85237 10.7988 6.17782 10.5045L8.50004 8.40488L10.2308 9.96981C10.8411 10.5215 11.1462 10.7975 11.5194 10.8268C11.8926 10.8562 12.2347 10.6313 12.9188 10.1815L14.1577 9.36674C14.8221 8.92988 15.1543 8.71141 15.1664 8.38688C15.1784 8.06228 14.8634 7.81814 14.2334 7.32994L12.6224 6.08136L14.2334 4.83282C14.8634 4.34457 15.1784 4.10044 15.1664 3.77587C15.1543 3.4513 14.8221 3.23286 14.1577 2.79598L12.9188 1.98125C12.2347 1.53142 11.8926 1.30651 11.5194 1.3359C11.1462 1.36528 10.8411 1.64115 10.2308 2.19289Z" stroke="black" stroke-linecap="round" stroke-linejoin="round"/>
</svg>
