<svg width="17" height="16" viewBox="0 0 17 16" fill="none" xmlns="http://www.w3.org/2000/svg">
<path d="M8.5001 3.92578L12.5742 6.14801L8.5001 8.3702L4.42603 6.14801L8.5001 3.92578Z" stroke="white" stroke-linecap="round" stroke-linejoin="round"/>
<path d="M4.05566 10.2223V11.5552C4.05566 12.3203 4.1921 12.5587 4.87461 12.9069L7.83757 14.4181C8.48777 14.7497 8.51244 14.7497 9.16264 14.4181L12.1256 12.9069C12.8081 12.5587 12.9446 12.3203 12.9446 11.5552V10.2223" stroke="white" stroke-linecap="round" stroke-linejoin="round"/>
<path d="M10.2307 2.19289L8.49992 3.75785L6.76909 2.19289C6.15887 1.64115 5.85377 1.36528 5.48054 1.3359C5.10731 1.30651 4.76527 1.53142 4.0812 1.98125L2.84222 2.79598C2.17784 3.23286 1.84565 3.4513 1.83359 3.77587C1.82153 4.10044 2.13652 4.34457 2.76652 4.83282L4.37755 6.08136L2.76652 7.32994C2.13653 7.81814 1.82153 8.06228 1.83359 8.38688C1.84565 8.71141 2.17784 8.92988 2.84222 9.36674L4.74416 10.6174C5.109 10.8573 5.29142 10.9773 5.49047 10.9616C5.68953 10.9459 5.85225 10.7988 6.1777 10.5045L8.49992 8.40488L10.2307 9.96981C10.841 10.5215 11.1461 10.7975 11.5193 10.8268C11.8925 10.8562 12.2346 10.6313 12.9187 10.1815L14.1576 9.36674C14.822 8.92988 15.1542 8.71141 15.1663 8.38688C15.1783 8.06228 14.8633 7.81814 14.2333 7.32994L12.6223 6.08136L14.2333 4.83282C14.8633 4.34457 15.1783 4.10044 15.1663 3.77587C15.1542 3.4513 14.822 3.23286 14.1576 2.79598L12.9187 1.98125C12.2346 1.53142 11.8925 1.30651 11.5193 1.3359C11.1461 1.36528 10.841 1.64115 10.2307 2.19289Z" stroke="white" stroke-linecap="round" stroke-linejoin="round"/>
</svg>
