<svg width="17" height="16" viewBox="0 0 17 16" fill="none" xmlns="http://www.w3.org/2000/svg">
<path d="M8.50008 8.66665L11.8334 11.6666M8.50008 8.66665L5.16675 11.6666M8.50008 8.66665V5.33331" stroke="white"/>
<path d="M12.6277 10.9638C12.9721 10.7657 13.1443 10.6667 13.3333 10.6667C13.5224 10.6667 13.6946 10.7657 14.039 10.9638L14.461 11.2065C14.8054 11.4046 14.9776 11.5036 15.0721 11.6667C15.1667 11.8298 15.1667 12.0279 15.1667 12.424V12.9094C15.1667 13.3055 15.1667 13.5036 15.0721 13.6667C14.9776 13.8298 14.8054 13.9288 14.461 14.1269L14.039 14.3696C13.6946 14.5677 13.5224 14.6667 13.3333 14.6667C13.1443 14.6667 12.9721 14.5677 12.6277 14.3696L12.2057 14.1269C11.8613 13.9288 11.6891 13.8298 11.5945 13.6667C11.5 13.5036 11.5 13.3055 11.5 12.9094V12.424C11.5 12.0279 11.5 11.8298 11.5945 11.6667C11.6891 11.5036 11.8613 11.4046 12.2057 11.2065L12.6277 10.9638Z" stroke="white"/>
<path d="M2.96093 10.9638C3.30532 10.7657 3.47751 10.6667 3.66659 10.6667C3.85567 10.6667 4.02785 10.7657 4.37224 10.9638L4.79427 11.2065C5.13865 11.4046 5.31084 11.5036 5.40538 11.6667C5.49992 11.8298 5.49992 12.0279 5.49992 12.424V12.9094C5.49992 13.3055 5.49992 13.5036 5.40538 13.6667C5.31084 13.8298 5.13865 13.9288 4.79427 14.1269L4.37224 14.3696C4.02785 14.5677 3.85567 14.6667 3.66659 14.6667C3.47751 14.6667 3.30532 14.5677 2.96093 14.3696L2.53891 14.1269C2.19452 13.9288 2.02233 13.8298 1.92779 13.6667C1.83325 13.5036 1.83325 13.3055 1.83325 12.9094V12.424C1.83325 12.0279 1.83325 11.8298 1.92779 11.6667C2.02233 11.5036 2.19452 11.4046 2.53891 11.2065L2.96093 10.9638Z" stroke="white"/>
<path d="M7.79441 1.6304C8.13881 1.43234 8.31101 1.33331 8.50008 1.33331C8.68915 1.33331 8.86135 1.43234 9.20575 1.6304L9.62775 1.87311C9.97215 2.07117 10.1443 2.1702 10.2389 2.33331C10.3334 2.49643 10.3334 2.69448 10.3334 3.0906V3.57603C10.3334 3.97215 10.3334 4.1702 10.2389 4.33331C10.1443 4.49643 9.97215 4.59545 9.62775 4.79351L9.20575 5.03623C8.86135 5.23429 8.68915 5.33331 8.50008 5.33331C8.31101 5.33331 8.13881 5.23429 7.79441 5.03623L7.37241 4.79351C7.02801 4.59545 6.85583 4.49643 6.76129 4.33331C6.66675 4.1702 6.66675 3.97215 6.66675 3.57603V3.0906C6.66675 2.69448 6.66675 2.49643 6.76129 2.33331C6.85583 2.1702 7.02801 2.07117 7.37241 1.87311L7.79441 1.6304Z" stroke="white"/>
</svg>
