<svg width="17" height="16" viewBox="0 0 17 16" fill="none" xmlns="http://www.w3.org/2000/svg">
<path d="M10.8334 8.00002C10.8334 9.28869 9.78875 10.3334 8.50008 10.3334C7.21141 10.3334 6.16675 9.28869 6.16675 8.00002C6.16675 6.71135 7.21141 5.66669 8.50008 5.66669C9.78875 5.66669 10.8334 6.71135 10.8334 8.00002Z" stroke="white"/>
<path d="M14.5073 9.39769C14.8552 9.30389 15.0292 9.25696 15.0979 9.16722C15.1666 9.07756 15.1666 8.93322 15.1666 8.64462V7.35549C15.1666 7.06689 15.1666 6.92256 15.0979 6.83289C15.0291 6.74316 14.8552 6.69622 14.5073 6.60241C13.207 6.25175 12.3932 4.89236 12.7288 3.6006C12.8211 3.24535 12.8672 3.06773 12.8231 2.96355C12.7791 2.85937 12.6527 2.78758 12.3997 2.644L11.2499 1.99118C11.0018 1.85028 10.8777 1.77984 10.7664 1.79484C10.655 1.80984 10.5294 1.93518 10.2781 2.18584C9.30525 3.15634 7.69565 3.1563 6.72281 2.18578C6.47154 1.93511 6.34591 1.80978 6.23454 1.79477C6.12318 1.77977 5.9991 1.85022 5.75094 1.99111L4.60115 2.64394C4.34827 2.78751 4.22183 2.8593 4.17777 2.96346C4.13371 3.06762 4.17983 3.24527 4.27209 3.60056C4.6075 4.89236 3.79307 6.25178 2.4926 6.60242C2.14467 6.69622 1.9707 6.74316 1.90197 6.83282C1.83325 6.92256 1.83325 7.06689 1.83325 7.35549V8.64462C1.83325 8.93322 1.83325 9.07756 1.90197 9.16722C1.97069 9.25696 2.14466 9.30389 2.4926 9.39769C3.79285 9.74836 4.60664 11.1078 4.27107 12.3995C4.17878 12.7548 4.13263 12.9324 4.17669 13.0366C4.22076 13.1408 4.3472 13.2126 4.60009 13.3561L5.74989 14.009C5.99806 14.1498 6.12215 14.2203 6.23352 14.2053C6.34489 14.1903 6.47051 14.0649 6.72173 13.8142C7.69505 12.843 9.30579 12.8429 10.2792 13.8142C10.5304 14.0649 10.656 14.1902 10.7674 14.2052C10.8787 14.2202 11.0029 14.1498 11.251 14.0089L12.4008 13.356C12.6537 13.2125 12.7802 13.1407 12.8242 13.0365C12.8683 12.9323 12.8221 12.7547 12.7298 12.3994C12.3941 11.1078 13.2072 9.74842 14.5073 9.39769Z" stroke="white" stroke-linecap="round"/>
</svg>
