<svg width="17" height="16" viewBox="0 0 17 16" fill="none" xmlns="http://www.w3.org/2000/svg">
<path d="M8.49996 8.66665L11.8333 11.6666M8.49996 8.66665L5.16663 11.6666M8.49996 8.66665V5.33331" stroke="black"/>
<path d="M12.6277 10.9638C12.9721 10.7657 13.1443 10.6667 13.3333 10.6667C13.5224 10.6667 13.6946 10.7657 14.039 10.9638L14.461 11.2065C14.8054 11.4046 14.9776 11.5036 15.0721 11.6667C15.1667 11.8298 15.1667 12.0279 15.1667 12.424V12.9094C15.1667 13.3055 15.1667 13.5036 15.0721 13.6667C14.9776 13.8298 14.8054 13.9288 14.461 14.1269L14.039 14.3696C13.6946 14.5677 13.5224 14.6667 13.3333 14.6667C13.1443 14.6667 12.9721 14.5677 12.6277 14.3696L12.2057 14.1269C11.8613 13.9288 11.6891 13.8298 11.5945 13.6667C11.5 13.5036 11.5 13.3055 11.5 12.9094V12.424C11.5 12.0279 11.5 11.8298 11.5945 11.6667C11.6891 11.5036 11.8613 11.4046 12.2057 11.2065L12.6277 10.9638Z" stroke="black"/>
<path d="M2.96105 10.9638C3.30544 10.7657 3.47763 10.6667 3.66671 10.6667C3.85579 10.6667 4.02797 10.7657 4.37236 10.9638L4.79439 11.2065C5.13877 11.4046 5.31096 11.5036 5.4055 11.6667C5.50004 11.8298 5.50004 12.0279 5.50004 12.424V12.9094C5.50004 13.3055 5.50004 13.5036 5.4055 13.6667C5.31096 13.8298 5.13877 13.9288 4.79439 14.1269L4.37236 14.3696C4.02797 14.5677 3.85579 14.6667 3.66671 14.6667C3.47763 14.6667 3.30544 14.5677 2.96105 14.3696L2.53903 14.1269C2.19464 13.9288 2.02245 13.8298 1.92791 13.6667C1.83337 13.5036 1.83337 13.3055 1.83337 12.9094V12.424C1.83337 12.0279 1.83337 11.8298 1.92791 11.6667C2.02245 11.5036 2.19464 11.4046 2.53903 11.2065L2.96105 10.9638Z" stroke="black"/>
<path d="M7.79429 1.6304C8.13869 1.43234 8.31089 1.33331 8.49996 1.33331C8.68903 1.33331 8.86123 1.43234 9.20563 1.6304L9.62763 1.87311C9.97203 2.07117 10.1442 2.1702 10.2388 2.33331C10.3333 2.49643 10.3333 2.69448 10.3333 3.0906V3.57603C10.3333 3.97215 10.3333 4.1702 10.2388 4.33331C10.1442 4.49643 9.97203 4.59545 9.62763 4.79351L9.20563 5.03623C8.86123 5.23429 8.68903 5.33331 8.49996 5.33331C8.31089 5.33331 8.13869 5.23429 7.79429 5.03623L7.37229 4.79351C7.02789 4.59545 6.85571 4.49643 6.76117 4.33331C6.66663 4.1702 6.66663 3.97215 6.66663 3.57603V3.0906C6.66663 2.69448 6.66663 2.49643 6.76117 2.33331C6.85571 2.1702 7.02789 2.07117 7.37229 1.87311L7.79429 1.6304Z" stroke="black"/>
</svg>
