<svg width="16" height="16" viewBox="0 0 16 16" fill="none" xmlns="http://www.w3.org/2000/svg">
<path d="M12.5937 10.8905C12.8054 10.7491 13.0597 10.6667 13.3334 10.6667C14.0698 10.6667 14.6667 11.2636 14.6667 12C14.6667 12.7364 14.0698 13.3333 13.3334 13.3333C12.597 13.3333 12 12.7364 12 12C12 11.5373 12.2358 11.1296 12.5937 10.8905ZM12.5937 10.8905L8.73972 5.10953M8.73972 5.10953C8.52806 5.25091 8.27368 5.33334 8.00004 5.33334C7.56384 5.33334 7.17657 5.12388 6.93331 4.80006M8.73972 5.10953C9.09764 4.87044 9.33337 4.46275 9.33337 4.00001C9.33337 3.26363 8.73642 2.66668 8.00004 2.66668C7.26366 2.66668 6.66671 3.26363 6.66671 4.00001C6.66671 4.30019 6.76591 4.57721 6.93331 4.80006M6.93331 4.80006L3.73344 7.19996M3.73344 7.19996C3.90084 7.42281 4.00004 7.69983 4.00004 8.00001C4.00004 8.73639 3.40309 9.33334 2.66671 9.33334C1.93033 9.33334 1.33337 8.73639 1.33337 8.00001C1.33337 7.26363 1.93033 6.66668 2.66671 6.66668C3.1029 6.66668 3.49018 6.87614 3.73344 7.19996Z" stroke="white" stroke-linecap="round" stroke-linejoin="round"/>
</svg>
