<svg width="17" height="16" viewBox="0 0 17 16" fill="none" xmlns="http://www.w3.org/2000/svg">
<path d="M10.8333 8.00002C10.8333 9.28869 9.78863 10.3334 8.49996 10.3334C7.21129 10.3334 6.16663 9.28869 6.16663 8.00002C6.16663 6.71135 7.21129 5.66669 8.49996 5.66669C9.78863 5.66669 10.8333 6.71135 10.8333 8.00002Z" stroke="black"/>
<path d="M14.5074 9.39769C14.8553 9.30389 15.0293 9.25696 15.098 9.16722C15.1667 9.07756 15.1667 8.93322 15.1667 8.64462V7.35549C15.1667 7.06689 15.1667 6.92256 15.098 6.83289C15.0292 6.74316 14.8553 6.69622 14.5074 6.60241C13.2071 6.25175 12.3933 4.89236 12.7289 3.6006C12.8212 3.24535 12.8673 3.06773 12.8232 2.96355C12.7792 2.85937 12.6528 2.78758 12.3998 2.644L11.25 1.99118C11.0019 1.85028 10.8778 1.77984 10.7665 1.79484C10.6551 1.80984 10.5295 1.93518 10.2782 2.18584C9.30537 3.15634 7.69577 3.1563 6.72293 2.18578C6.47166 1.93511 6.34603 1.80978 6.23466 1.79477C6.1233 1.77977 5.99922 1.85022 5.75106 1.99111L4.60127 2.64394C4.34839 2.78751 4.22195 2.8593 4.17789 2.96346C4.13383 3.06762 4.17995 3.24527 4.27221 3.60056C4.60762 4.89236 3.79319 6.25178 2.49272 6.60242C2.14479 6.69622 1.97082 6.74316 1.90209 6.83282C1.83337 6.92256 1.83337 7.06689 1.83337 7.35549V8.64462C1.83337 8.93322 1.83337 9.07756 1.90209 9.16722C1.97081 9.25696 2.14478 9.30389 2.49272 9.39769C3.79297 9.74836 4.60676 11.1078 4.27119 12.3995C4.1789 12.7548 4.13275 12.9324 4.17681 13.0366C4.22088 13.1408 4.34732 13.2126 4.60021 13.3561L5.75001 14.009C5.99818 14.1498 6.12227 14.2203 6.23364 14.2053C6.34501 14.1903 6.47063 14.0649 6.72185 13.8142C7.69517 12.843 9.30591 12.8429 10.2793 13.8142C10.5305 14.0649 10.6561 14.1902 10.7675 14.2052C10.8788 14.2202 11.003 14.1498 11.2511 14.0089L12.4009 13.356C12.6538 13.2125 12.7803 13.1407 12.8243 13.0365C12.8684 12.9323 12.8222 12.7547 12.7299 12.3994C12.3942 11.1078 13.2073 9.74842 14.5074 9.39769Z" stroke="black" stroke-linecap="round"/>
</svg>
