<svg width="17" height="16" viewBox="0 0 17 16" fill="none" xmlns="http://www.w3.org/2000/svg">
<path d="M10.5 5.11572L11.4394 4.12468C11.9394 3.59716 12.1894 3.3334 12.5 3.3334C12.8107 3.3334 13.0607 3.59716 13.5607 4.12468L14.5 5.11572M12.5 3.39156V6.30828C12.5 7.79726 12.5 8.54172 12.2022 9.19826C11.9042 9.85472 11.344 10.345 10.2234 11.3255L9.83337 11.6667" stroke="black" stroke-linecap="round" stroke-linejoin="round"/>
<path d="M2.5 4.33333C2.5 3.51659 2.5 3.10822 2.65895 2.79627C2.79877 2.52186 3.02186 2.29877 3.29627 2.15895C3.60822 2 4.01659 2 4.83333 2C5.65007 2 6.05845 2 6.3704 2.15895C6.64481 2.29877 6.8679 2.52186 7.00772 2.79627C7.16667 3.10822 7.16667 3.51659 7.16667 4.33333C7.16667 5.15007 7.16667 5.55845 7.00772 5.8704C6.8679 6.14481 6.64481 6.3679 6.3704 6.50772C6.05845 6.66667 5.65007 6.66667 4.83333 6.66667C4.01659 6.66667 3.60822 6.66667 3.29627 6.50772C3.02186 6.3679 2.79877 6.14481 2.65895 5.8704C2.5 5.55845 2.5 5.15007 2.5 4.33333Z" stroke="black"/>
<path d="M2.5 11.6667C2.5 10.8499 2.5 10.4415 2.65895 10.1296C2.79877 9.85521 3.02186 9.63208 3.29627 9.49228C3.60822 9.33334 4.01659 9.33334 4.83333 9.33334C5.65007 9.33334 6.05845 9.33334 6.3704 9.49228C6.64481 9.63208 6.8679 9.85521 7.00772 10.1296C7.16667 10.4415 7.16667 10.8499 7.16667 11.6667C7.16667 12.4834 7.16667 12.8918 7.00772 13.2037C6.8679 13.4781 6.64481 13.7013 6.3704 13.8411C6.05845 14 5.65007 14 4.83333 14C4.01659 14 3.60822 14 3.29627 13.8411C3.02186 13.7013 2.79877 13.4781 2.65895 13.2037C2.5 12.8918 2.5 12.4834 2.5 11.6667Z" stroke="black"/>
</svg>
