<svg width="17" height="16" viewBox="0 0 17 16" fill="none" xmlns="http://www.w3.org/2000/svg">
<ellipse cx="7.16667" cy="11.6667" rx="4.66667" ry="2.33333" stroke="#09090B" stroke-width="1.2" stroke-linejoin="round"/>
<ellipse cx="7.16667" cy="4.66667" rx="2.66667" ry="2.66667" stroke="#09090B" stroke-width="1.2" stroke-linejoin="round"/>
<path fill-rule="evenodd" clip-rule="evenodd" d="M10.6858 6.56962C10.4003 7.09659 9.99984 7.55221 9.51807 7.90287C9.82301 8.01947 10.154 8.08334 10.5 8.08334C12.0187 8.08334 13.25 6.85213 13.25 5.33334C13.25 3.84223 12.0632 2.6283 10.5827 2.58456C10.887 3.08282 11.0854 3.65286 11.1465 4.26335C11.5082 4.48238 11.75 4.87963 11.75 5.33334C11.75 5.96053 11.288 6.47983 10.6858 6.56962Z" fill="#09090B"/>
<path fill-rule="evenodd" clip-rule="evenodd" d="M12.6308 13.1835C12.9749 12.7213 13.1666 12.2076 13.1666 11.6667C13.1666 11.5891 13.1627 11.5122 13.1549 11.4358C13.3983 11.3236 13.5622 11.2101 13.6593 11.1145C13.7193 11.0553 13.7407 11.0172 13.7479 11C13.7407 10.9829 13.7193 10.9447 13.6593 10.8856C13.5477 10.7756 13.3476 10.642 13.0399 10.5138C12.969 10.4843 12.8943 10.4558 12.8159 10.4285C12.3673 9.66407 11.5149 9.01714 10.4159 8.58368C10.4439 8.58346 10.4719 8.58334 10.5 8.58334C11.6788 8.58334 12.7812 8.78101 13.6169 9.12919C14.033 9.3026 14.4188 9.52816 14.712 9.81698C15.0078 10.1084 15.25 10.5086 15.25 11C15.25 11.4914 15.0078 11.8916 14.712 12.183C14.4188 12.4719 14.033 12.6974 13.6169 12.8708C13.3192 12.9949 12.9876 13.0998 12.6308 13.1835ZM13.7511 11.0105C13.751 11.0105 13.7506 11.0092 13.7503 11.0067C13.7511 11.0092 13.7512 11.0105 13.7511 11.0105ZM13.7503 10.9933C13.7506 10.9908 13.751 10.9895 13.7511 10.9895C13.7512 10.9895 13.7511 10.9908 13.7503 10.9933Z" fill="#09090B"/>
</svg>
